<svg viewBox="0 0 20.921 29.837" xmlns="http://www.w3.org/2000/svg"><g fill="#fff"><path d="m83.493 82.852v-4.23a2.622 2.622 0 0 0 -5.245 0v4.23a2.622 2.622 0 0 0 0 4.944v.733h2.914v1.748h-2.914v2.914h2.914v1.749h-2.914v4.66h1.752v1.807h1.748v-1.807h1.748v-2.329h-2.917v-1.749h2.914v-2.913h-2.914v-1.749h2.914v-3.06a2.622 2.622 0 0 0 0-4.944z" transform="translate(-76.5 -71.571)"/><path d="m321.328 38.923v-1.923h-1.748v1.923h-1.166v-1.923h-1.748v1.923h-1.166v2.331a3.5 3.5 0 1 0 6.993 0v-2.331z" transform="translate(-301.572 -34.844)"/><path d="m154.438 11.655a5.259 5.259 0 0 1 -.874-.073v10.388a2.389 2.389 0 1 1 -4.779 0v-17.832a4.138 4.138 0 0 0 -8.027-1.411 4.347 4.347 0 0 1 1.871.136 2.388 2.388 0 0 1 4.408 1.275v17.832a4.138 4.138 0 0 0 8.275 0v-10.388a5.259 5.259 0 0 1 -.874.073z" transform="translate(-137.013)"/></g></svg>