<svg xmlns="http://www.w3.org/2000/svg" viewBox="0 0 166.868 161.377"><defs><style>.a{fill:#fff;}</style></defs><g transform="translate(-876.566 -687.338)"><g transform="translate(876.565 680.417)"><path class="a" d="M166.513,130.786a29.126,29.126,0,0,0-39.329-18.315L98.616,83.9l37.932-37.647L145.531,46a3.174,3.174,0,0,0,2.635-1.555L161.022,22.83a3.174,3.174,0,0,0-.476-3.873l-11.11-11.11a3.174,3.174,0,0,0-3.873-.476L123.946,20.227a3.174,3.174,0,0,0-1.555,2.635l-.254,8.951L84.3,69.587,58.335,43.621A29.044,29.044,0,0,0,13.609,14.513a3.174,3.174,0,0,0,.222,5.4L28.243,27.94c3.174,1.809,3.809,7.206,1.238,11.776s-7.491,6.92-10.7,5.142L5.42,37.622a3.174,3.174,0,0,0-4.7,2.984A29.044,29.044,0,0,0,41.131,65.492L64.747,89.108,54.526,99.329l-2.317-2.285a6.634,6.634,0,0,0-9.174,0l-3.174,3.174a6.348,6.348,0,0,0-.349,8.729L1.96,146.435a6.349,6.349,0,0,0-.2,8.976q.1.1.2.2l10.729,10.729a6.349,6.349,0,0,0,8.976.2q.1-.1.2-.2l37.583-37.551a6.348,6.348,0,0,0,8.729-.349l3.174-3.174a6.349,6.349,0,0,0,.2-8.976q-.1-.1-.2-.2l-2.317-2.317,10.158-10.38,30.79,30.79a29.044,29.044,0,0,0,49.391,25.14,3.174,3.174,0,0,0-1.428-5.142l-17.871-4.793a5.873,5.873,0,0,1-3.746-3.65,11.65,11.65,0,0,1-.317-7.491c1.333-4.984,5.555-8.539,9.11-7.586l17.681,4.761a2.982,2.982,0,0,0,.857,0,3.174,3.174,0,0,0,2.856-4.634Zm-39.075-95.45a3.174,3.174,0,0,0,.921-2.158l.254-8.475,18-10.7,7.618,7.618L143.754,39.59l-8.634.317a3.174,3.174,0,0,0-2.158.921L94.235,79.522l-5.46-5.46ZM17.355,161.83,6.467,151.006,44.209,113.36l5.46,5.46,5.206,5.4Zm46.439-38.091-4.19-4.222L57.985,117.9,44.654,104.472l3.174-3.174,19.045,19.3Zm.6-14.475-5.46-5.46L69.159,93.584l5.46,5.46Zm82.277,15.268a11.113,11.113,0,0,0-2.889-.381,15.554,15.554,0,0,0-14,12.443,18,18,0,0,0,.6,11.586,12.094,12.094,0,0,0,7.967,7.3l11.808,3.174a22.7,22.7,0,0,1-33.711-24.7,3.174,3.174,0,0,0-.857-2.952L44.051,59.4a3.175,3.175,0,0,0-3.746-.444A22.714,22.714,0,0,1,8.34,46.637l7.237,4.031A11.205,11.205,0,0,0,21.1,52.1a16.569,16.569,0,0,0,13.808-9.015c4.317-7.713,2.635-16.887-3.714-20.442L21.958,17.4A22.7,22.7,0,0,1,51.7,43.907a3.174,3.174,0,0,0,.857,2.952l71.706,71.675a3.174,3.174,0,0,0,3.714.571,22.72,22.72,0,0,1,30.187,8.539Z" transform="translate(0 0)"/></g></g></svg>