<svg version="1" xmlns="http://www.w3.org/2000/svg" width="346.667" height="346.667" viewBox="0 0 260.000000 260.000000"><path d="M28.9 19.8v220c.1 1.1 9.2 1.3 51.9.9 28.4-.2 53.3-.7 55.2-1.1 1.9-.4 7.3-1.4 12-2.3 35.7-6.5 62.1-25.8 76.5-56 6.9-14.4 10.2-31 10.3-51.7.2-34.1-8.7-58.9-28.2-78.2C191.4 36.3 173.2 27 148.7 22c-15-3.1-17.1-3.2-69.4-3.5-46.3-.3-50.3-.2-50.4 1.3zm91.8 42.6c11.3 1.2 12.7 1.4 20.9 4 14.1 4.5 24.2 11.9 31.5 23 7.9 12 10.9 24.7 10.3 43.6-.3 12-.6 13.9-3.6 23.3-5.8 18.7-22.1 33.1-42.6 37.8-9 2-10.8 2.2-33.9 2.6-22.1.5-23.3.4-23.4-1.4-.1-2.4-.1-131.5 0-132.8.1-1.1 29.7-1.2 40.8-.1z"/></svg>