<?xml version="1.0" encoding="utf-8"?>
<!-- Generator: Adobe Illustrator 22.1.0, SVG Export Plug-In . SVG Version: 6.00 Build 0)  -->
<svg version="1.1" id="Layer_1" xmlns="http://www.w3.org/2000/svg" xmlns:xlink="http://www.w3.org/1999/xlink" x="0px" y="0px"
	 viewBox="0 0 800 30" style="enable-background:new 0 0 800 30;" xml:space="preserve">
<style type="text/css">
	.st0{fill:#E9D885;}
	.st1{fill:#DCB93B;}
	.st2{fill:#4DD1A9;}
</style>
<polygon class="st0" points="53.424,0 0.083,0 0.083,30 35.872,30 "/>
<polygon class="st1" points="163.73,30 25.202,30 42.755,0 181.282,0 "/>
<polygon class="st2" points="385.029,30 180.594,30 198.146,0 402.581,0 "/>
<polygon class="st1" points="626.29,30 385.029,30 402.581,0 643.842,0 "/>
<polygon class="st0" points="609.77,0 592.217,30 800.333,30 800.333,0 "/>
<polygon class="st0" points="352.333,30 321.358,30 338.91,0 369.885,0 "/>
<polygon class="st0" points="474.856,30 419.79,30 437.342,0 492.409,0 "/>
<polygon class="st0" points="112.707,30 86.894,30 104.447,0 130.259,0 "/>
<polygon class="st0" points="142.391,30 136.196,30 153.749,0 159.944,0 "/>
<polygon class="st0" points="155.814,30 148.93,30 166.483,0 173.366,0 "/>
<polygon class="st0" points="180.594,30 163.73,30 181.282,0 198.146,0 "/>
<polygon class="st2" points="554.015,30 495.506,30 513.059,0 571.567,0 "/>
<polygon class="st2" points="713.02,30 661.395,30 678.947,0 730.572,0 "/>
<polygon class="st2" points="740.209,30 730.916,30 748.469,0 757.761,0 "/>
<polygon class="st1" points="665.008,30 634.033,30 651.586,0 682.561,0 "/>
<g id="Layer_3">
	<g id="Layer_4">
	</g>
</g>
</svg>
